<svg id="Layer_1" data-name="Layer 1" xmlns="http://www.w3.org/2000/svg" viewBox="0 0 405.95 345.68"><defs><style>.cls-1{font-size:36.85px;}.cls-1,.cls-8{fill:#e3614d;}.cls-1,.cls-4{font-family:Tahoma;}.cls-2{letter-spacing:0em;}.cls-3{letter-spacing:0em;}.cls-4{font-size:76.8px;}.cls-4,.cls-5{fill:#923744;}.cls-5,.cls-6,.cls-8,.cls-9{fill-rule:evenodd;}.cls-6,.cls-7{fill:#cc7c49;}.cls-9{fill:#cc6728;}</style></defs><text class="cls-1" transform="translate(0.37 257.43)">Music A<tspan class="cls-2" x="124.41" y="0">f</tspan><tspan class="cls-3" x="135.96" y="0">rica</tspan></text><text class="cls-4" transform="translate(0 219.52)">Sheet</text><path class="cls-5" d="M1089.91,438.32H846.17l.31-.38a73.73,73.73,0,0,0,7.2-10.21,54.28,54.28,0,0,1,25-23.13c2.83-1.27,4.29-3.28,4.13-6.35-.17-3.26,1.33-5.64,3.52-7.91,4.43-4.59,8.56-9.47,13-14,.93-.94,2.8-1,4.27-1.33a3.51,3.51,0,0,1,1.91.28c9.68,4.13,18.54,2.28,27.21-3.14,2.25-1.4,5.37-1.55,8.15-1.9,2.3-.29,4.68.08,7,0,7.5-.28,15.47,2.13,21.4-4,7.9,5.5,9.82,12.53,6.3,21.44,2.46,0,4.15.13,5.79,0,6.37-.57,11.54.94,15.31,6.77,1.12,1.75,4.38,2.39,6.79,3,9.35,2.31,9.36,2.23,15-5.36,3.69-4.94,3.59-4.66,9.6-2.72,9.37,3,18.8,6,28.36,8.2,3.3.77,7.13-.5,10.66-1.14,2.28-.41,3.4.13,4.54,2.27,4.58,8.56,9.47,17,14.21,25.46.57,1,1.42,2.11,1.4,3.15A22.18,22.18,0,0,0,1089.91,438.32Z" transform="translate(-757.37 -366.28)"/><path class="cls-6" d="M874.82,446.31v43.86H845.63c-2.07-1.87-2.93-3.92-3.58-6.91-1.68-7.75.87-14.73,2.81-21.79a26.7,26.7,0,0,0,.06-15.16Z" transform="translate(-757.37 -366.28)"/><rect class="cls-7" x="143.08" y="80.03" width="8.07" height="43.86"/><path class="cls-6" d="M987.49,464.2a95.55,95.55,0,0,1,1.5,26H917.75V446.31h28.67a35.29,35.29,0,0,0-6.61,6.7c-3.83,5.09-5.37,10.91-2.53,17,3.17,6.81,10.74,9.79,18.85,7.74a12.85,12.85,0,0,0,10-14c-.6-5.42-6.16-10-12.4-10.36-1.57-.07-3.13-.35-4.69-.53-.11-.25-.21-.5-.31-.75,1-1,1.8-2.33,3-2.94,1.9-1,3.81-2,5.77-2.88h19.28a18.62,18.62,0,0,1,4.86,4.21C984.88,454.45,986.47,459.25,987.49,464.2Z" transform="translate(-757.37 -366.28)"/><path class="cls-8" d="M1013.39,490.17a43.05,43.05,0,0,0,.52-6.74c0-14.78-5-27-16.73-36.12-.44-.35-.89-.69-1.34-1H1095c.56.77,1.11,1.55,1.66,2.34,3.6,5.16,7,10.24,8.34,16.55a5.86,5.86,0,0,0,2.39,3.33c7.85,4.64,13,11.78,18.35,18.84a20.44,20.44,0,0,0,2.63,2.8Z" transform="translate(-757.37 -366.28)"/><path class="cls-9" d="M1162.81,490.16h-7.9l7.54-2.47C1162.57,488.53,1162.69,489.35,1162.81,490.16Z" transform="translate(-757.37 -366.28)"/><path class="cls-8" d="M1086.48,658.31a5.4,5.4,0,0,1-1.84,3.72,72.72,72.72,0,0,1-8.41,5.66c-2.1,1.22-2.69,2.63-1.4,4.74s.74,3.82-.84,5.56c-8.8,9.74-17.5,19.59-26.36,29.25a6.36,6.36,0,0,1-4.14,1.5c-8.45.16-16.87.23-25,3-3.93,1.33-10.53-5-11.53-9-1.49-6-4.07-11.65-6.35-17.37a18.93,18.93,0,0,0-2.91-4.62c-4.78-5.92-7.07-12.51-6.33-20.21.19-1.87-.87-4-1.76-5.8-2.32-4.65-4.84-9.23-7.17-13.88-.17-.32-.35-.64-.51-1h104.33a5.37,5.37,0,0,0-.73,4C1086.05,648.67,1086.37,653.5,1086.48,658.31Z" transform="translate(-757.37 -366.28)"/><path class="cls-6" d="M989.66,593.85c.13,4.29,0,8.6-.24,12.91-.41,7.33-1.66,14.5-5.45,21a20.88,20.88,0,0,1-3.19,4.22h-2.53c-.68-2.55-.08-5.72.2-8.51a75.46,75.46,0,0,1,6.86-25,7.66,7.66,0,0,0,.15-4.56Z" transform="translate(-757.37 -366.28)"/><path class="cls-6" d="M1114,618.3c0,1.08-1.3,2.46-2.33,3.23-4.82,3.49-9.63,7-14.48,10.42H999.88a44,44,0,0,0,7.55-8.83c6-9.09,7.46-19,6.11-29.27H1113C1114.92,601.81,1113.71,610.15,1114,618.3Z" transform="translate(-757.37 -366.28)"/><path class="cls-5" d="M986.1,573.29A61.38,61.38,0,0,1,989,585.87h-5.92A97.3,97.3,0,0,0,968.34,559a25.45,25.45,0,0,1,7.1,1.67C981.12,562.82,984.17,567.77,986.1,573.29Z" transform="translate(-757.37 -366.28)"/><path class="cls-5" d="M1111.53,557.44a17.62,17.62,0,0,1,1.54,3c-1.13,1.5-2.21,3-3.3,4.56-.44.63-1.11,1.34-1.08,2a84.45,84.45,0,0,1-.43,8.53,9.84,9.84,0,0,1-2.52.27c-2.29-.05-4.75-1.61-6.35-4.55a22.77,22.77,0,0,1-2.24-6.85c-.17-.87-.32-1.76-.43-2.65a7.71,7.71,0,0,1,6.11-8.31A8.57,8.57,0,0,1,1111.53,557.44Z" transform="translate(-757.37 -366.28)"/><path class="cls-5" d="M1127.84,544.22a75.76,75.76,0,0,0-9,9,.07.07,0,0,1,0,0,34.63,34.63,0,0,0-11.56-2.77,31.76,31.76,0,0,0-10.15.7,22.62,22.62,0,0,0-9.61,4.65,11.57,11.57,0,0,0-3.7,5.24,9.9,9.9,0,0,0,.82,7.41,14.32,14.32,0,0,0,6.94,6.71c4.76,2.31,9.83,3.31,16.11,3.38.16,0,.33,0,.53-.06a16.7,16.7,0,0,0,1.6,7.44H1012c-3.28-11.86-10.84-20.84-21.2-27.41-8.81-5.59-18-8.5-27.74-7.65a6.7,6.7,0,0,1,1.12-5.3c.28-.44.54-.88.75-1.29Z" transform="translate(-757.37 -366.28)"/><path class="cls-8" d="M874.82,498.15v21.7c-4.46-2.64-8.86-5.38-13.22-8.17-1.25-.8-2.65-2.5-2.71-3.83a16.15,16.15,0,0,0-3.77-9.7Z" transform="translate(-757.37 -366.28)"/><path class="cls-8" d="M900.45,498.15h8.07v21.14c-1.63-1.24-3.51-1.28-5.88-.27l-2.19.9Z" transform="translate(-757.37 -366.28)"/><path class="cls-8" d="M963,522.47a26.52,26.52,0,0,1-9.52-3.18c-4.79-2.66-5.92-7.82-7.22-12.68-.51-1.85-.8-3.77-1.18-5.65l-.67-.24A54.06,54.06,0,0,1,939,518.19c-.71-.5-1.4-1-2.09-1.59-2-1.6-3.79-1.64-6.06-.73-4.34,1.79-8.77,3.29-13.13,5V498.15h70.42a46.7,46.7,0,0,1-3.52,12.72C979.62,521.83,972.4,523.58,963,522.47Z" transform="translate(-757.37 -366.28)"/><path class="cls-6" d="M1163.32,498.15a20.22,20.22,0,0,1-2.26,8.41c-4.91,9.48-10.48,18.08-19,24.77-1.93,1.55-3.76,3.21-5.55,4.91H966.64a19.07,19.07,0,0,0-1-4.78c1.52,0,3.06-.11,4.61-.26,17.85-1.72,34.81-15.29,41.08-33.05Z" transform="translate(-757.37 -366.28)"/></svg>