<svg xmlns="http://www.w3.org/2000/svg" viewBox="0 0 756.08 812.14"><defs><style>.cls-1{isolation:isolate;}.cls-2{mix-blend-mode:hard-light;}.cls-3,.cls-4{fill:#260000;}.cls-3{fill-rule:evenodd;}</style></defs><g class="cls-1"><g id="Layer_1" data-name="Layer 1"><g class="cls-2"><path class="cls-3" d="M1089.54,318.19H516.89c.22-.31.47-.59.72-.9a175.37,175.37,0,0,0,16.93-24c14-24.3,33.13-42.72,58.67-54.34,6.62-3,10.06-7.71,9.69-14.93-.38-7.64,3.12-13.23,8.27-18.58,10.4-10.78,20.11-22.23,30.63-32.88,2.19-2.21,6.59-2.38,10-3.12a8.36,8.36,0,0,1,4.5.65c22.73,9.71,43.57,5.34,63.93-7.37,5.28-3.31,12.61-3.65,19.14-4.47,5.4-.67,11,.2,16.48,0,17.61-.65,36.35,5,50.28-9.31,18.55,12.93,23.09,29.45,14.8,50.37,5.78,0,9.75.32,13.62,0,15-1.34,27.11,2.22,36,15.93,2.62,4.09,10.27,5.59,16,7,22,5.44,22,5.25,35.23-12.59,8.66-11.61,8.43-11,22.55-6.4,22,7.13,44.16,14,66.64,19.27,7.75,1.82,16.74-1.18,25-2.69,5.37-1,8,.32,10.67,5.34,10.78,20.12,22.25,39.89,33.39,59.81,1.35,2.37,3.34,5,3.28,7.43C1083,302,1085.6,310.42,1089.54,318.19Z" transform="translate(-505.92 -148.93)"/><path class="cls-3" d="M584.17,336.94V440H515.62c-4.86-4.41-6.9-9.21-8.42-16.24-3.94-18.21,2.06-34.6,6.61-51.18,3.35-12.21,3.69-23.76.13-35.64Z" transform="translate(-505.92 -148.93)"/><rect class="cls-4" x="138.5" y="188.01" width="18.96" height="103.05"/><path class="cls-3" d="M848.9,379c4.22,20.17,4.87,40.59,3.51,61H685.07V336.94h67.34a83.67,83.67,0,0,0-15.53,15.74c-9,12-12.61,25.64-5.93,40,7.43,16,25.24,23,44.28,18.17C790.69,407,800.4,393.4,798.72,378c-1.41-12.74-14.47-23.61-29.14-24.36-3.69-.15-7.33-.81-11-1.22-.25-.59-.47-1.18-.73-1.78,2.31-2.37,4.26-5.47,7-6.9,4.46-2.31,9-4.75,13.55-6.78h45.31a43.83,43.83,0,0,1,11.39,9.91C842.78,356.08,846.5,367.36,848.9,379Z" transform="translate(-505.92 -148.93)"/><path class="cls-3" d="M909.74,440A98.89,98.89,0,0,0,911,424.16c0-34.72-11.81-63.39-39.32-84.87-1-.82-2.1-1.59-3.16-2.35h232.88c1.31,1.81,2.62,3.66,3.9,5.5,8.46,12.15,16.46,24.08,19.61,38.88a13.66,13.66,0,0,0,5.59,7.84c18.46,10.9,30.48,27.67,43.13,44.25a48,48,0,0,0,6.18,6.59Z" transform="translate(-505.92 -148.93)"/><path class="cls-3" d="M1260.8,440h-18.56l17.71-5.81Q1260.39,437.12,1260.8,440Z" transform="translate(-505.92 -148.93)"/><path class="cls-3" d="M1081.46,835c.07,2.93-2,6.83-4.3,8.74a173.35,173.35,0,0,1-19.77,13.3c-4.93,2.87-6.31,6.19-3.28,11.16s1.71,9-2,13c-20.67,22.88-41.13,46-62,68.7-2.08,2.28-6.4,3.47-9.7,3.54-19.87.36-39.64.54-58.88,7.14-9.2,3.12-24.73-11.83-27.06-21.14-3.51-14-9.56-27.39-14.94-40.82a44.21,44.21,0,0,0-6.84-10.84c-11.21-13.93-16.61-29.38-14.87-47.49.45-4.38-2-9.37-4.12-13.62-5.46-10.94-11.37-21.67-16.86-32.61-.41-.74-.8-1.53-1.18-2.3h245.11c-1.78,2.5-2.19,5.37-1.72,9.34C1080.46,812.37,1081.22,823.71,1081.46,835Z" transform="translate(-505.92 -148.93)"/><path class="cls-3" d="M854,683.59c.32,10.08,0,20.2-.56,30.32-1,17.23-3.9,34.07-12.8,49.28a49.52,49.52,0,0,1-7.49,9.9H827.2c-1.6-6-.19-13.43.48-20a177.17,177.17,0,0,1,16.1-58.8c1.41-3,1.13-7.21.34-10.71Z" transform="translate(-505.92 -148.93)"/><path class="cls-3" d="M1146.11,741c.09,2.51-3,5.79-5.47,7.56-11.31,8.21-22.61,16.43-34,24.49H878a103.51,103.51,0,0,0,17.74-20.74c14-21.36,17.51-44.76,14.36-68.76h233.62C1148.29,702.29,1145.45,721.87,1146.11,741Z" transform="translate(-505.92 -148.93)"/><path class="cls-3" d="M845.65,635.27a142.55,142.55,0,0,1,6.88,29.58H838.62c-8-23-20-43.85-34.71-63.27a60.52,60.52,0,0,1,16.7,3.93C833.94,610.69,841.1,622.32,845.65,635.27Z" transform="translate(-505.92 -148.93)"/><path class="cls-3" d="M1140.33,598.05a40.41,40.41,0,0,1,3.62,7.12c-2.65,3.53-5.22,7.09-7.77,10.71-1,1.47-2.59,3.15-2.53,4.72.28,6.62-.59,13.33-1,20a22.68,22.68,0,0,1-5.9.62c-5.38-.13-11.15-3.78-14.93-10.68a54.16,54.16,0,0,1-5.25-16.09c-.4-2-.75-4.15-1-6.24a18.07,18.07,0,0,1,14.34-19.52A20.2,20.2,0,0,1,1140.33,598.05Z" transform="translate(-505.92 -148.93)"/><path class="cls-3" d="M1178.65,567a179.31,179.31,0,0,0-21.21,21.12s-.06-.07-.08-.07a81.3,81.3,0,0,0-27.14-6.52,74.74,74.74,0,0,0-23.86,1.65c-8.28,2-16,5.27-22.55,10.93-3.91,3.37-7.15,7.31-8.72,12.3-1.87,6-.72,11.88,1.94,17.41,3.47,7.24,9.21,12.32,16.31,15.76,11.17,5.43,23.07,7.78,37.84,7.93.38,0,.78-.09,1.24-.12a39.34,39.34,0,0,0,3.76,17.49H906.37c-7.69-27.89-25.46-49-49.77-64.43-20.73-13.11-42.42-20-65.23-17.95-.9-4-.18-8,2.66-12.46.66-1,1.25-2.06,1.75-3Z" transform="translate(-505.92 -148.93)"/><path class="cls-3" d="M584.17,458.74v51c-10.45-6.21-20.79-12.65-31-19.2-2.93-1.88-6.21-5.87-6.37-9a37.92,37.92,0,0,0-8.83-22.79Z" transform="translate(-505.92 -148.93)"/><path class="cls-3" d="M644.41,458.74h19v49.68c-3.84-2.93-8.24-3-13.8-.65-1.71.71-3.44,1.44-5.16,2.12Z" transform="translate(-505.92 -148.93)"/><path class="cls-3" d="M791.35,515.89A62.36,62.36,0,0,1,769,508.42c-11.28-6.25-13.93-18.4-17-29.79-1.19-4.37-1.85-8.87-2.74-13.27l-1.6-.57a126.48,126.48,0,0,1-12.61,41c-1.66-1.18-3.29-2.43-4.92-3.75-4.65-3.75-8.89-3.84-14.23-1.68-10.18,4.18-20.61,7.7-30.83,11.77V458.74H850.5a109,109,0,0,1-8.28,29.88C830.41,514.39,813.46,518.48,791.35,515.89Z" transform="translate(-505.92 -148.93)"/><path class="cls-3" d="M1262,458.74a47.48,47.48,0,0,1-5.31,19.76c-11.56,22.27-24.61,42.48-44.57,58.22-4.55,3.62-8.84,7.52-13,11.52H799.93A45.8,45.8,0,0,0,797.65,537c3.57,0,7.19-.25,10.81-.59,41.94-4.06,81.79-35.94,96.53-77.66Z" transform="translate(-505.92 -148.93)"/></g></g></g></svg>